<svg enable-background="new 0 0 280 360" height="360" viewBox="0 0 280 360" width="280" xmlns="http://www.w3.org/2000/svg" xmlns:xlink="http://www.w3.org/1999/xlink"><linearGradient id="a"><stop offset=".4574" stop-color="#d2cdaa"/><stop offset=".5828" stop-color="#d4d0af"/><stop offset=".7254" stop-color="#dbd8bc"/><stop offset=".876" stop-color="#e7e5d3"/><stop offset=".9738" stop-color="#f0f0e6"/></linearGradient><linearGradient id="b" gradientUnits="userSpaceOnUse" x1="126.1411" x2="126.1411" xlink:href="#a" y1="-27.5005" y2="350.0468"/><linearGradient id="c" gradientUnits="userSpaceOnUse" x1="139.4985" x2="139.4985" xlink:href="#a" y1="-27.4937" y2="350.0434"/><linearGradient id="d" gradientUnits="userSpaceOnUse" x1="216.9355" x2="216.9355" xlink:href="#a" y1="-27.502" y2="350.0513"/><linearGradient id="e" gradientUnits="userSpaceOnUse" x1="77.2217" x2="77.2217" xlink:href="#a" y1="-27.5024" y2="350.0575"/><linearGradient id="f" gradientUnits="userSpaceOnUse" x1="29.7856" x2="29.7856" xlink:href="#a" y1="-27.501" y2="350.0457"/><linearGradient id="g" gradientUnits="userSpaceOnUse" x1="84.2954" x2="84.2954" xlink:href="#a" y1="-27.4995" y2="350.0537"/><linearGradient id="h" gradientUnits="userSpaceOnUse" x1="203.9648" x2="203.9648" xlink:href="#a" y1="-27.502" y2="350.0692"/><linearGradient id="i" gradientUnits="userSpaceOnUse" x1="34.814" x2="34.8139" xlink:href="#a" y1="-27.4932" y2="350.0416"/><linearGradient id="j" gradientUnits="userSpaceOnUse" x1="148.2852" x2="148.2851" xlink:href="#a" y1="-27.5024" y2="350.0746"/><linearGradient id="k" gradientUnits="userSpaceOnUse" x1="66.9707" x2="66.9707" xlink:href="#a" y1="-27.4912" y2="350.0344"/><linearGradient id="l" gradientUnits="userSpaceOnUse" x1="208.1914" x2="208.1914" xlink:href="#a" y1="-27.4888" y2="350.0455"/><linearGradient id="m" gradientUnits="userSpaceOnUse" x1="40.6997" x2="40.6997" xlink:href="#a" y1="-27.4976" y2="350.0295"/><linearGradient id="n" gradientUnits="userSpaceOnUse" x1="228.793" x2="228.793" xlink:href="#a" y1="-27.4976" y2="350.0291"/><linearGradient id="o" gradientUnits="userSpaceOnUse" x1="259.8623" x2="259.8623" xlink:href="#a" y1="-27.4922" y2="350.0226"/><linearGradient id="p" gradientUnits="userSpaceOnUse" x1="189.916" x2="189.916" xlink:href="#a" y1="-27.5093" y2="350.0471"/><linearGradient id="q" gradientUnits="userSpaceOnUse" x1="45.6763" x2="45.6763" xlink:href="#a" y1="-27.48" y2="350.0377"/><linearGradient id="r" gradientUnits="userSpaceOnUse" x1="241.3408" x2="241.3408" xlink:href="#a" y1="-27.5122" y2="350.0565"/><linearGradient id="s" gradientUnits="userSpaceOnUse" x1="239.3828" x2="239.3828" xlink:href="#a" y1="-27.3892" y2="349.9732"/><linearGradient id="t" gradientUnits="userSpaceOnUse" x1="243.7793" x2="243.7793" xlink:href="#a" y1="-27.4849" y2="350.0275"/><linearGradient id="u" gradientUnits="userSpaceOnUse" x1="260.1348" x2="260.1347" xlink:href="#a" y1="-27.4941" y2="350.046"/><linearGradient id="v" gradientUnits="userSpaceOnUse" x1="251.9053" x2="251.9053" xlink:href="#a" y1="-27.4922" y2="350.0346"/><linearGradient id="w" gradientUnits="userSpaceOnUse" x1="268.0791" x2="268.0791" xlink:href="#a" y1="-27.498" y2="350.0445"/><linearGradient id="x" gradientUnits="userSpaceOnUse" x1="222.4531" x2="222.4531" xlink:href="#a" y1="-27.5142" y2="350.0522"/><linearGradient id="y" gradientUnits="userSpaceOnUse" x1="76.2476" x2="76.2475" xlink:href="#a" y1="-27.4819" y2="350.0444"/><linearGradient id="z" gradientUnits="userSpaceOnUse" x1="203.1426" x2="203.1426" xlink:href="#a" y1="-27.4468" y2="350.0326"/><linearGradient id="A" gradientUnits="userSpaceOnUse" x1="60.7383" x2="60.7383" xlink:href="#a" y1="-27.4897" y2="350.0331"/><linearGradient id="B" gradientUnits="userSpaceOnUse" x1="153.6094" x2="153.6094" xlink:href="#a" y1="-27.5146" y2="350.1294"/><linearGradient id="C" gradientUnits="userSpaceOnUse" x1="227.4219" x2="227.4219" xlink:href="#a" y1="-27.4331" y2="350.0069"/><linearGradient id="D" gradientUnits="userSpaceOnUse" x1="155.8203" x2="155.8203" xlink:href="#a" y1="-27.5156" y2="350.1399"/><linearGradient id="E" gradientUnits="userSpaceOnUse" x1="113.5688" x2="113.5688" xlink:href="#a" y1="-27.5518" y2="350.0563"/><linearGradient id="F" gradientUnits="userSpaceOnUse" x1="201.2246" x2="201.2246" xlink:href="#a" y1="-27.4966" y2="350.0161"/><linearGradient id="G" gradientUnits="userSpaceOnUse" x1="191.8242" x2="191.8242" xlink:href="#a" y1="-27.5107" y2="350.1495"/><linearGradient id="H" gradientUnits="userSpaceOnUse" x1="125.2598" x2="125.2598" xlink:href="#a" y1="-27.5703" y2="350.0623"/><linearGradient id="I" gradientUnits="userSpaceOnUse" x1="227.7324" x2="227.7324" xlink:href="#a" y1="-27.4961" y2="350.0435"/><linearGradient id="J" gradientUnits="userSpaceOnUse" x1="61.667" x2="61.667" xlink:href="#a" y1="-27.6626" y2="350.1227"/><linearGradient id="K" gradientUnits="userSpaceOnUse" x1="180.5586" x2="180.5586" xlink:href="#a" y1="-27.5127" y2="350.213"/><linearGradient id="L" gradientUnits="userSpaceOnUse" x1="61.9741" x2="61.9741" xlink:href="#a" y1="-27.5996" y2="350.0832"/><linearGradient id="M" gradientUnits="userSpaceOnUse" x1="92.8506" x2="92.8506" xlink:href="#a" y1="-27.4844" y2="350.0353"/><linearGradient id="N" gradientUnits="userSpaceOnUse" x1="184.3984" x2="184.3984" xlink:href="#a" y1="-27.374" y2="350.0182"/><linearGradient id="O" gradientUnits="userSpaceOnUse" x1="233.377" x2="233.3769" xlink:href="#a" y1="-27.4624" y2="350.0021"/><linearGradient id="P" gradientUnits="userSpaceOnUse" x1="123.4175" x2="123.4175" xlink:href="#a" y1="-27.4888" y2="349.935"/><linearGradient id="Q" gradientUnits="userSpaceOnUse" x1="222.4961" x2="222.4961" xlink:href="#a" y1="-27.3857" y2="349.9681"/><linearGradient id="R" gradientUnits="userSpaceOnUse" x1="197.8613" x2="197.8613" xlink:href="#a" y1="-27.5103" y2="350.1003"/><linearGradient id="S" gradientUnits="userSpaceOnUse" x1="228.3447" x2="228.3447" xlink:href="#a" y1="-27.542" y2="350.0647"/><linearGradient id="T" gradientUnits="userSpaceOnUse" x1="84.5757" x2="84.5757" xlink:href="#a" y1="-27.4888" y2="349.9826"/><linearGradient id="U" gradientUnits="userSpaceOnUse" x1="227.8652" x2="227.8652" xlink:href="#a" y1="-27.5034" y2="350.044"/><linearGradient id="V" gradientUnits="userSpaceOnUse" x1="138.6616" x2="138.6616" xlink:href="#a" y1="-27.416" y2="350.0273"/><linearGradient id="W" gradientUnits="userSpaceOnUse" x1="146.2656" x2="146.2656" xlink:href="#a" y1="-27.4927" y2="350.0436"/><linearGradient id="X" gradientUnits="userSpaceOnUse" x1="67.5249" x2="67.5249" xlink:href="#a" y1="-27.6787" y2="350.1346"/><linearGradient id="Y" gradientUnits="userSpaceOnUse" x1="155.0039" x2="155.0039" xlink:href="#a" y1="-27.498" y2="350.0316"/><linearGradient id="Z" gradientUnits="userSpaceOnUse" x1="238.8262" x2="238.8262" xlink:href="#a" y1="-27.4946" y2="350.0275"/><linearGradient id="aa" gradientUnits="userSpaceOnUse" x1="158.3496" x2="158.3496" xlink:href="#a" y1="-27.4873" y2="350.0399"/><linearGradient id="ab" gradientUnits="userSpaceOnUse" x1="239.0801" x2="239.0801" xlink:href="#a" y1="-27.4766" y2="350.0229"/><linearGradient id="ac" gradientUnits="userSpaceOnUse" x1="83.561" x2="83.561" xlink:href="#a" y1="-27.4302" y2="350.0174"/><linearGradient id="ad" gradientUnits="userSpaceOnUse" x1="30.6997" x2="30.6997" xlink:href="#a" y1="-27.6704" y2="350.0932"/><linearGradient id="ae" gradientUnits="userSpaceOnUse" x1="12.856" x2="12.8559" xlink:href="#a" y1="-27.5054" y2="350.0422"/><linearGradient id="af" gradientUnits="userSpaceOnUse" x1="237.2852" x2="237.2851" xlink:href="#a" y1="-27.5151" y2="350.1895"/><linearGradient id="ag" gradientUnits="userSpaceOnUse" x1="85.9746" x2="85.9746" xlink:href="#a" y1="-27.833" y2="350.2904"/><linearGradient id="ah" gradientUnits="userSpaceOnUse" x1="116.104" x2="116.104" xlink:href="#a" y1="-26.9155" y2="349.8091"/><linearGradient id="ai" gradientUnits="userSpaceOnUse" x1="169.3633" x2="169.3633" xlink:href="#a" y1="-27.9556" y2="350.0446"/><linearGradient id="aj" gradientUnits="userSpaceOnUse" x1="88.3838" x2="88.3838" xlink:href="#a" y1="-27.3438" y2="349.9528"/><linearGradient id="ak" gradientUnits="userSpaceOnUse" x1="162.2637" x2="162.2637" xlink:href="#a" y1="-28.4204" y2="350.0353"/><linearGradient id="al" gradientUnits="userSpaceOnUse" x1="97.4111" x2="97.4111" xlink:href="#a" y1="-27.7471" y2="350.0662"/><linearGradient id="am" gradientUnits="userSpaceOnUse" x1="84.8823" x2="84.8823" xlink:href="#a" y1="-27.7754" y2="350.0836"/><linearGradient id="an" gradientUnits="userSpaceOnUse" x1="148.4111" x2="148.4111" xlink:href="#a" y1="-27.3994" y2="350.0422"/><linearGradient id="ao" gradientUnits="userSpaceOnUse" x1="101.8745" x2="101.8745" xlink:href="#a" y1="-27.3188" y2="349.8895"/><linearGradient id="ap" gradientUnits="userSpaceOnUse" x1="183.0264" x2="183.0264" xlink:href="#a" y1="-27.2534" y2="350.0397"/><linearGradient id="aq" gradientUnits="userSpaceOnUse" x1="220.0195" x2="220.0195" xlink:href="#a" y1="-28.0542" y2="350.5197"/><linearGradient id="ar" gradientUnits="userSpaceOnUse" x1="89.6519" x2="89.6518" xlink:href="#a" y1="-27.2842" y2="349.8655"/><linearGradient id="as" gradientUnits="userSpaceOnUse" x1="64.3511" x2="64.3511" xlink:href="#a" y1="-27.4741" y2="350.0209"/><linearGradient id="at" gradientUnits="userSpaceOnUse" x1="168.4854" x2="168.4853" xlink:href="#a" y1="-27.063" y2="350.0478"/><linearGradient id="au" gradientUnits="userSpaceOnUse" x1="203.4648" x2="203.4648" xlink:href="#a" y1="-27.126" y2="349.9612"/><linearGradient id="av" gradientUnits="userSpaceOnUse" x1="84.2241" x2="84.2241" xlink:href="#a" y1="-28.2314" y2="350.6887"/><linearGradient id="aw" gradientUnits="userSpaceOnUse" x1="75.2983" x2="75.2983" xlink:href="#a" y1="-28.2603" y2="350.3709"/><linearGradient id="ax" gradientUnits="userSpaceOnUse" x1="211.9766" x2="211.9765" xlink:href="#a" y1="-27.4038" y2="349.016"/><linearGradient id="ay" gradientUnits="userSpaceOnUse" x1="172.8984" x2="172.8984" xlink:href="#a" y1="-28.6558" y2="350.0451"/><linearGradient id="az" gradientUnits="userSpaceOnUse" x1="157.0547" x2="157.0547" xlink:href="#a" y1="-28.1719" y2="350.0353"/><linearGradient id="aA" gradientUnits="userSpaceOnUse" x1="198.6973" x2="198.6973" xlink:href="#a" y1="-26.6514" y2="349.3498"/><linearGradient id="aB" gradientUnits="userSpaceOnUse" x1="19.5981" x2="19.5981" xlink:href="#a" y1="-24.8076" y2="349.5074"/><linearGradient id="aC" gradientUnits="userSpaceOnUse" x1="14.9399" x2="14.9399" xlink:href="#a" y1="-25.8584" y2="349.7642"/><linearGradient id="aD" gradientUnits="userSpaceOnUse" x1="21.8276" x2="21.8276" xlink:href="#a" y1="-23.7607" y2="349.2704"/><linearGradient id="aE" gradientUnits="userSpaceOnUse" x1="173.2871" x2="173.2871" xlink:href="#a" y1="-25.4268" y2="348.4691"/><linearGradient id="aF" gradientUnits="userSpaceOnUse" x1="179.5459" x2="179.5459" xlink:href="#a" y1="-28.5615" y2="351.9847"/><linearGradient id="aG" gradientUnits="userSpaceOnUse" x1="171.9531" x2="171.9531" xlink:href="#a" y1="-29.1772" y2="353.1872"/><linearGradient id="aH" gradientUnits="userSpaceOnUse" x1="171.0898" x2="171.0898" xlink:href="#a" y1="-29.6538" y2="353.6139"/><linearGradient id="aI" gradientUnits="userSpaceOnUse" x1="158.96" x2="158.9599" xlink:href="#a" y1="-26.6445" y2="348.5239"/><linearGradient id="aJ" gradientUnits="userSpaceOnUse" x1="175.957" x2="175.957" xlink:href="#a" y1="-27.4941" y2="350.0255"/><linearGradient id="aK" gradientUnits="userSpaceOnUse" x1="182.6494" x2="182.6494" xlink:href="#a" y1="-26.686" y2="348.7161"/><g clip-rule="evenodd" fill-rule="evenodd"><path d="m95.961 295.848c3.531-3.227-9.477-13.82-2.039-19.555 5.805-4.484 7.484-20.734 16.148-21.742.562-.062-7.852 25.414-9.641 24-3.531-2.75 2.227-6.57-4.648-2.367-3.367 2.062-.539 9.695.352 11.594 1.445-.141 2.492-5.016 4.773-3.102 1.781 1.492-1.008 24.68 9.344 23.648 4.719-.469-5.305-9.516-4.938-10.414 1.234-2.992 13.188 5.469 14.398 7.219 1.055-2.367 12.75-22.172 14.852-18.758 2.914 4.766-16.719 19.484-.203 22.32 2.172.367.266-7.391 2.469-10.398 3.391-4.594 8.359-5.195 10.883-11.109 2.43-5.672 2.664 3.562 1.664 6.156-1.609 4.281-9.945 5.086-10.039 9.961-.156 8.992 11.922 2.258 6.242 1.625-8.766-.961 11.188-12.195 11.18-9.648.008-.344-3.586 6.383-2.055 6.625 3 .461 11.047 1.055 6.695-4.523-1.891-2.438-6.156-18.289.648-17.086.75.148 3.195 15.266 4.703 18.234 1.406 2.82 2.266 3.047 5.391 3.055 5.188.023-2.922-6.711-2.922-8.117-.008-2.688 7.188-20.414 7.938-13.703.273 2.359-5.211 8.625-.07 10.094 1.188.344 8.008 4.828 8.258.445.125-2.188-4.719-2.039-4.812-5.188-.141-4.641 4.328.273 5.453.25 13.109-.242 5.469-13.781 10.078-16.523 5.492-3.258 4.555 10.438 4.359 11.32-.523 2.281 10.133 9.227-.789 4.844.867 6.086 4.742 2.828 2.438 8.32-.508 1.188-1.555 8.469-3.094 7.977 1.008-.258 1.586-.961 1.789-2.125 5.281 3.156-3.312 6.102-5.359 6.102-5.969 0-.375-6.336-1.211-7.883-3.672-6.68-7.453 11.656-7.078 11.234-.836.969-5.336 3.609-.461 3.609.234 4.32-4.758 3.07-4.969 5.32-.047.523 3.633 7.875 1.172 9.594-1.266.875-1-2.766-3.07-.82.117-.109-.211 6.844-.211 6.742-.07 1.539-4.281 7.836-5.234 8.859-1.367.805-2.828.961-4.414.477-6.125-2.156-2.055.594-6.5 2.625.141-.055-9.93 9.797-9.555 5.328.102-1.164 5.312-2.234 3.219-3.961-8.438-6.969 2.172-3.516-1.148-7.086-2.203-2.367-5.102 2.227-7.406 2.539-5.469.773-2.906 5.93-4.914 6.742-4.875 1.977-.258-9.68-7.016-6.305-4.859 2.43-7.336-12.484-10.289-13.062-.195 1.609 1.344 10.336.836 10.242-5.68-1.023-6.586-6.07-12.805-6.07.156-1.336 2.703-4.523 1.016-5.461-.922-.492-1.43 3.852-3.695 2.969-3.688-1.445 2.125-6.273.789-8.594-9.016 11.898-12-10.383-11.273-10.102.102.047-13.18 9.039-9.32-3.047 1.289-4.016-9.336-2.664-10.445-4.953-.492-1.031 3.836-5.898-1.867-6.734-2.086-.305.492 3.758.148 4.359-1.773-1.484-7.148-3.555-7.219-5.391-.039-.859 4.742-2.469 3.156-3.156-.625-.281-5.445.562-4.445-1.656.344-.75 3.547-1.711 3.445-2.43-.25-2.172-4.273-1.828-6.016-1.945.633-1.492.984-3.047 1.055-4.664-2.977-4.07-3.508 5.43-2.914-4.039-3.492.375-7.203-9.078-7.102-13.219-.039 1.688-18.102-24.641-9.758-24.25.219 0 6.039 12.773 6.078 14.125.016.734 8.484 11.797 7.219 11.539 1.625.32 1.398-4.211 3.969-1.586 3.609 3.719 6.945 6.766 8.891 11.578 1.07 2.641 6.109 15.492 10.773 13.297-.758.367-4.781-15.062-5.18-15.906-2.289-4.984-7.336-7.297-8.695-12.883-.953-3.906 4.023-3.68 3.992.398-.047 4.945 10.773 8.953 10.516 12.828-.588 8.118.302 16.211 8.49 21.368.687-.633-1.149-.711 0 0zm39.75 32.656c.969 1.805 7.602 1.547 5.664 5.281-2.789 5.445-6.641-2.125-7.766-.023-1.211 2.258 4.047 5.602 5.219 6.531 7.133-4.617 4.914-11.789-3.117-11.789.195.383.445 0 0 0zm53.992-35.656c3.203-4.18 4.375.195 6.875-.859 6.031-2.524-11.437-6.673-6.875.859.25-.313-.437-.719 0 0zm-26.367 43.281c0 4.359 5.797-6.82 6.633-5.156-1.172-2.297-6.805 3.531-6.633 5.156 0 .141-.117-1.063 0 0zm9.602-1.711c-10.743 3.711 1.984 5.984 0 0-1.086.391.601 1.805 0 0zm-62.133-14.828c-.18-1.133-1.25-4.781-2.82-4.164-2.915 1.164 1.781 3.969 2.82 4.164-.078-.508-.375-.07 0 0zm50.992 21.898c-1.742.281-2.664 1.266-2.773 2.93.773 1.844 4.257-.648 2.773-2.93-.781.399.641 1.024 0 0zm-15.43-19.242c-.125-.375-6.938 1.016-1.859 3.531-.117-1.57.492-2.75 1.859-3.531-.031-.094-.492.453 0 0zm-26.258 6c-1.461 1.758 1.938 4.125 2.594 2.836.102-1.969-.765-2.914-2.594-2.836-.086.109.61.149 0 0zm7.164-8.851c-.062-.883-1.797-4.258-3.141-3.312-1.499 1.077 3.032 4.812 3.141 3.312 0-.11-.031.468 0 0zm31.438-5.493c-.977-1.625-1.898-1.773-2.805-.469 0 .93.422 1.578 1.227 1.938.539-.476 1.055-.961 1.578-1.469 0-.781 0 .719 0 0zm18.273 17.532c2.336-.688 2.266-1.453-.156-2.328-1.711.828-1.656 1.609.156 2.328 1.055-.008-.922.015 0 0zm-24.515 2.492c-.781-1.641-1.57-1.57-2.391.25.906 2.164 1.719 2.07 2.391-.25-.016-.781.039 1 0 0zm19.554-8.414c-2.773-.062-1.258 2.688 1.109 1.68.43-1.126.04-1.688-1.109-1.68-1.164-.016.18.07 0 0zm-75.718-18.391c-.328.586-.461 4 1.25 3.023.742-1.132.328-2.148-1.25-3.023-.586 1.031 1.078.438 0 0zm50.414 9.305c1.789-.672 1.938-1.352.414-2.039-1.899.804-2.039 1.484-.414 2.039.961 0-.446-.063 0 0zm13.179 21.281c-.555 1.211 2.477 2.727 3.016 1.953.039-1.68-.969-2.328-3.016-1.953-.054.117.914.219 0 0zm-92.437-59.594c2.062.523 3.125-.109 2.773-1.648-1.398.219-2.203.711-2.773 1.648zm48.539 36.422c-.578-2.039-1.164-2.086-1.766-.125.696 1.328 1.289 1.375 1.766.125-.031-1.008-.016.391 0 0zm63.281 3.125c-.672-1.211-1.422-1.273-2.242-.203.688 1.25 1.438 1.313 2.242.203.039-.461-.008.485 0 0zm-30.297 10.055c1.234.125 1.906-.328 1.961-1.352-1.07-.758-1.726-.312-1.961 1.352.688.187.032-1.016 0 0zm3.578-5.656c.094-1.359-.359-1.953-1.602-2.055-.015 1.195.376 1.711 1.602 2.055zm23.969 1.289c-.891.578-.617 1.094.859 1.547 1.204-.649.907-1.165-.859-1.547-.093.062.907 0 0 0zm-59.469-5.532c1.516-.617 1.617-1.172.312-1.664-.968.461-1.062 1.008-.312 1.664.719-.015-.132-.211 0 0zm-22.25-12.945c.867-.578.836-1.164-.125-1.75-1.148.492-1.101 1.078.125 1.75.172-.219-.781-.156 0 0zm74.329 14.234c-.789-.445-1.383-.227-1.797.695.781.821 1.39.579 1.797-.695-.235-.054.07.657 0 0zm1.14-3.882c-.172 1.203-.172 1.203.508 1.805.813-1.094.727-1.43-.508-1.805zm-8.937 7.922c-1.406 1.906 1.539 1.601 0 0-.297.398.336.351 0 0zm22.461-17.227c-.055-2.422-3.157 1.672 0 0 0-.125-.274.156 0 0zm-115.836-33.422c-2.547-1.703-1.172 2.391 0 0-.727-.484-.086.188 0 0zm22.351 26.477c-2.195-1.43-1.578 1.234 0 0-.5-.313-.414.312 0 0zm63.938 24.547c.75.883.75.883 1.781.344-.492-.493-1.031-.563-1.781-.344zm10.883 5.593c-.766-.68-.828-.68-1.539.117.554.36 1.054.391 1.539-.117zm-35.024-2.953c-1.226-.992-1.242.86 0 0-.242-.203-.265.195 0 0zm31.422-9.015c.828 1.078 1.883-.633 0 0 .484.625.32-.118 0 0zm6.18 6.929c.391.562.391.562 1.211.273-.578-.117-.899-.195-1.211-.273zm-42.008 9.914c-.805-.609-.789.508 0 0-.156-.117-.172.11 0 0zm69.898-38.414c-.437.375.485.656 0 0-.078.078.079.102 0 0zm-32.039 15.422c-.406-.609-.476.422 0 0-.054-.094-.054.047 0 0z" fill="url(#b)"/><path d="m147.508 196.285c6.258-5.773 2.836-3.523 12.742-6.055 5.305-1.375 18.68 4.789 22.484 9.086 7.93 8.938 3 13.945 6.047 24.102 2.18 7.297.625 7.102-3.773.102-6.141 4.508 5.664 8.664 7.648 10.883 1.734 1.891-.945 8.312-3.789 7.539-.336-.109-2.672-6.617-4.578-8.07-.742-.547-9.727-6.562-10.117-6.453 2.375-.641-15.664 15.898-13.469 11.258-1.766 3.758-7.391 7.477-11.359 4.086-2.742-2.344-7.508 4.219-9.898 3.219-1.758-.719.422-2.969-1-3.352.125.039-8.383 5.094-8.523 5.234-3.094 3.188-16.703-1.93-13.625-5.961 1.852-2.445 4.789 3.305 6.148 1.109 1.156-.82 2.344-1.562 3.594-2.211-.312-1.07-.508-2.164-.578-3.289 2.391-3.641 11.289-3.906 12.141-.062.43 1.914 4.227-2.961 5.102-3.992-4.664-5.469-14.422-1.539-20.117-4.617-6.156-3.336 8.812-3.977 9.336-3.977 5.398 0 18.266 4.531 22.852 1.586 4.5-2.875 13.258-10.352 2.555-10.328-7.281.016-13.352 2.609-20.414 2.641-6.938.039-12.805-3.438-20.016-2.688-3.188.336-13.477 3.086-13.117 7.711.32 3.93-1.805 15.898-4.789 18.156-2.57-.578 2.391-7.367-.008-8.711-1.727-.953-6.805 10.234-8.039 11.18-.258.195 3.086 12.852-.555 8.594-3.625-4.227-7.531-9.195-1.359-13.852 2.625-1.984-4.461-12.445.023-12.711 2.594-.18.875 5.25 2.555 6.242 3.617 2.148-1.766-12.016-1.766-11.945-.203-4.773 3.086-2.797 4.656-5.57.82-1.453-1.391-3.648-.969-5.258.422-1.633 8.508-12.289 9.703-12.891 7.57-3.898 1.219 3.781 1.75 5.305.586 1.672 3.766-3.609 3.281-4.836-.5-1.836-.008-3.352 1.469-4.562 2.469-2.742-.922-3.062-1.016-6.008-.125-3.375-8.609-24.454 1.094-24.219 2.195.055-3.555 11.867.242 13.617 1.977.906 4.938-2.266 6.789-2.359.562-.016 6.578 1.945 4.273-1.516-1.164-1.766 8.734 5.141 12.266-1.492.695-1.305 16.172 2.445 16.562 2.969 7.781 10.094 9.422-12.352 6.18-10.453 3.188-1.859 10.766 17.633-1.297 20.618-9.204 2.279-11.157 2.92-7.321 12.201.359-.32-.196-.461 0 0zm-28.93-7.906c-1.359-.102-5.969-.555-4.969 2.109 1.359 3.617 2.82-.992 4.711.297 2.578 1.766-3.164 4.258-1.047 6.508-.18-.172 15.211-.688 14.703-2.641-.851-3.203-10.89-6.078-13.398-6.273-.312-.024.43.023 0 0zm37.633 9.328c3.133-.859 16.867 5.18 17.57 4.445 5.422-5.391-23.844-9.344-21.461-6.328.703.883 3.555-2.328 3.711.602-.016-.086-4.188 2.93-1.109 3.039.836-.242 1.266-.836 1.289-1.758.805-.219-.117.398 0 0zm25.133 19.008c-.062-.594.242-7.852-1.547-7.711-1.32.086-4.086 17.164-2.617 17.734 3.843 1.492 3.914-8.398 4.164-10.023-.203-2.36-.297 1.937 0 0zm-51.235-16.578c-.914-.281-1.664-.094-2.211.578-1.352 6.883 14.898 1.219 15.594.836 1.961-1.086-2.344-4.992-3.414-3.094-3.211 5.609-5.789 1.641-9.969 1.68-.523 0 1.414-.016 0 0zm-33.64 27.593c2.43-.992.883-9.281-.875-9.078-2.985.391.289 7.61.875 9.078 1.023-.421-.203-.507 0 0zm47.156 5.563c.688.625 9.109 1.852 6.648-1.211-.664-.836-6.125.367-6.648 1.211.992.914.648-1.016 0 0zm24.445-3.211c-.891-5.219-5.188 2.023-1.758 1.977 1.211-.282 1.797-.922 1.758-1.977-.054-.422-.039.32 0 0zm-12.656 3.445c1.711-.031 2.781-.844 3.234-2.438.391-2.405-5.898.962-3.234 2.438 1.774-.031-.094-.047 0 0zm-53.922-26.687c-.992.492-2.656 3.438-.367 3.562 1.281-.75 1.406-1.937.367-3.562-1.234.609.586.922 0 0zm12.188-9.695c-.555-2.07-1.211-2.086-1.977-.023.633 2.171 1.289 2.194 1.977.023 0-.813 0 .945 0 0zm66.679 9.937c1.844-.727 1.945-1.516.289-2.352-1.539.719-1.632 1.5-.289 2.352zm-47.039 33.891c1.18-.578 1.172-1.328-.07-2.297.008.773.031 1.539.07 2.297.618.023-.398-.711 0 0z" fill="url(#c)"/><path d="m164.234 170.847c6.164 1.68 8.898 8.125 14.57 10.399 2.508 1.031 1.984 7.047 6.391 4.188 5.141-3.281 2.031 3.477 2.469 3.875 2.156 1.867 4.234-5.523 6.18-4.883 2.031.688 5.125 15.273 11.438 5.117-.641-.359-12.523.984-4.422-2.297-.344-1.625-6.492-1.469-2.133-4.578.945-.688 6.414-6.211 7.875-3.696 3.633 6.305 3.805-11.078.891-2.648-.289.844-8.539-3.844-9.266-4.422-7.102-5.695 11.547.664 7.617.633 2.188.023-3.656-9.094-1.469-10.234 3.047-1.594 1.812 5.023 4.453 3.828-.391.18 1.609-13.602 5.07-7.516 3.422 6.039 1.305-6.359.398-5.297 1.273-1.5 2.922 1.5 4 .75 3.969-2.727-1.273-9.477-.648-10.516.57-.977 3.625.711 3.992-.555 1.094-3.93-2.703-2.492-.156-7.781 3.172-6.594.555-13.695-.188-20.398-.43-3.961.82-11.164 4.898-13.477.664-.367 13.117-6.109 9.078-7.961-1.375-.625-3.922 1.961-5.711 1.938-7.867-.133-10.273-1.992-15.711-7.398-5.258-5.281-9.227-17.453-9.227-24.547 6.188 1.219 11.656 18.859 21.484 8.078 3.891-4.266 11.109 2.172 16.867-2.727 1.297-1.109 4.422-9.18 6.258-9 4.125.43-8.859 20.867-17.969 18.445-3.188-.844-3.32-6.609-7.766-.922-1.688 2.18-9.891 4.398-10.258 3.023.742 2.766 4.461 5.727 6.414 7.609 8 7.633 3.758-1.992 9.109.102 2.727 1.055 5.5-1.023 7.227-3.227 4.32-5.445-1.719-1.664-1.539-5.039.094-1.766 17-5.328 17.719-12.734.664-6.648.25-8.539-.258-15.164-.375-4.766-6.523-8.039-6.977-12.836-.305-3.352 6.352 4.094 6.312 4.016 3.969 6.062 4.711 11.609 7.453 18.062 2.438 5.766 2.391 13.656-2.406 18.312-.43.406-10.281 10.75-11.289 4.93-.281-1.539 18.367-11.023 11.148-16.719-2.742 2.273-5.672 7.656-8.133 10.57-1.352.867-2.844 1.43-4.445 1.68-3.352 1.867-.945 4.797-3.328 7.289-.445.477-3.094 13.203-3.219 14.797-.414 4.969-.516 10.695 2.328 15.125 2.109 3.32 12.164 10.859 15.414 9.422 4.445-1.977 15.141-13.18 14.359-15.422 3.07 8.859-8.562 16.094-14.445 20.234 1.703 2.562 8.812 14.281-.508 15.648-2.398.352-3.016-4.469-.492-5.023 4.234-.977-1.266-6.281-1.57-7.156-1.539-4.539-5.164-9.016-11.695-11.891-5.609-2.438-7.477-5.938-10.477-11.039-1.031-1.789 3.227-9.773 1.375-9.391-11.336 2.367-4.086 29.656-1.914 36.297 2.125 6.523-4.273 24.43-7.516 30.07-2.969 5.195-13.805 13.446-5.922 21.665 3.289 3.414-1.805 6.25-2.391 3.164-.625-3.156-3.859-3.758-4.508-6.469-2.133-9.227-6.281-1.992-6.445-2.141.859.859 9.383 1.672 6.641 7.812-2.734 6.125 5.594 14.359 5.234 20.93-.141 2.492-4.344 2.344-3.898 4.383.664 3.141 1.18 9.625-1.852 12.078-9.945 7.969.68-7.781-2.961-10.789-6.5 6.508-6.438-9.625-8.492-10.102-2.648-.594 1.891 16.672-3.531 15.508-3.047-.672-.906-26.828-8.648-29.164-2.66-.817-21.004-21.748-20.879-24.818 1.321.367-.054 1.422 0 0zm35.149 25.438c-.406 1.859 6.125 1.719 4.18 6.812-2.016 5.328 2.289 6.914 4.133 11.398.289.664 6.742-5.961.016-10.062-1.524-.937-3.314-11.757-8.329-8.148-.024.141.711-.5 0 0zm15.578-30.407c.586-.57 1.18-1.172 1.781-1.742-.453-1.266-1.406-1.531-2.891-.789.376.844.743 1.688 1.11 2.531 1.172-.211-.352-.828 0 0zm-20.367 27.704c.938 1.703 1.867 2.07 2.859 1.094-.391-1.75-1.336-2.125-2.859-1.094.484.859.609-.586 0 0zm18.242-26.227c-1.359.539-1.445 1.039-.219 1.516 1.211-.399 1.289-.914.219-1.516-.453.344.328.328 0 0zm-9.563 47.258c-.344.781-.109 1.18.539 1.453.344-.945.344-.945-.539-1.453z" fill="url(#d)"/><path d="m128.378 45.9c-.87.314-1.63.501-2.035.501.069-.399.869-.541 2.035-.501 2.822-1.018 6.822-3.385 3.77-5.147-6.898-3.945-.18-11.117-1.953-13.594-4.634-6.488-2.771 12.636-1.604 15.502.142.051.275.106.424.154-.115.333-.264.241-.424-.154-9.822-3.541-2.117-13.862-2.81-20.4-.25-2.328-5.828-12.672-9.336-10.555 1.992-1.203 3.812 16.039 3.789 18.055-.109 7.094.406 10.188 4.766 15.375-.365-.432-.859.114-.326.068-4.226.664-9.536-9.58-10.229-12.443-2.312-9.594.836-10.688-7.469-16.031-3.383-2.172-12.336-7.125-14.43-10.383-2.241-3.482-2.221-5.127-1.213-6.347h-7.186c-.496.379-.999.734-1.515 1.035-2.398 1.406-10.617 15.312-4.766 14.914 3.195-.219 1.898-11.969 7.008-11.023 2.922.539 3.031 9.055 8.883 8.859 3.406-.109 6.477 2.68 8.703 4.695 4.375 3.953-.883 26.344-4.008 24.023.281.211 4.344-13.266 2.922-16.188-2.562-5.195-8.039-10.523-14.797-8.695-7.203 1.953 7.703 6.414 7.852 6.625 1.977 2.664 6.102 11.555 1.633 14.391-3.383 2.141-10.984 11.219-14.648 3.039-2.453-5.477-2.773-13.914-5.875-18.594-2.562-3.875-3.312-11.211-8.836-12.562.609.148-19.906-6.805-13.211.172 2.375 2.484 4-4.445 6.367-.727.742 1.18 4.594 2.68 5.883 3.875 3.039 2.828 7.219 9.023 7.219 13.352 0 6.242 3.422 15.688-2.453 20.68-5.844 4.984-5.297-1.172-5.906-6.719-.711-6.547-7.727-11.141-8.484-16.812-.617-4.703-12.195-7.719-7.781 2.867 3.172 7.625 10.867 6.469 12.008 16.648.711 6.477-2.117 12.453-5.617 17.594-.883 1.32-6.578 5.375-7.836 4.273-4.219-3.703-.328-1.883-.148-5.82.062-1.242 4.023-25.18-2.5-13.922-10.266 17.656-14.852-5.641-20.023-2.578-4.727-5.586-7.047 6.617-8.148 9.242-2.406 5.633 1.805 11.945 3.438 16.703 2.836 8.352 10.961 2.516 2.922-2.609-4.328-2.766-3.047-19.25 1.539-21.703 6.812 9.984 4.961 14.875 18.977 10.805 1.688 5.867-4.609 11.852 2.398 16.594 4.07 2.766 9.141 3.281 12.688-1.242 2.555-3.266 5.805-15.523 8.453-15.414 6.75.289 7.078-10.797 10.93-11.383 3.992-.609 7.766 9.133 14.383 3.219.617-.555 7.445-1.172 8.57-1.188 5.984-.047 8.68-16.195 10.156-15.961 1.008.164 1.719 9.539 4.008 11.109 4.258 2.953 6.438 9.68 12.797 9.641 22.427-.164 6.975-5.11 1.046-5.315z" fill="url(#e)"/><path d="m30.477 186.637c-4.82-12.336-3.344-27.86-14.102-37.922-4.875-4.578 2.242-17.422.234-18.766-8.156-5.5-13.141-13.781-13.102-23.695.016-4.454 8.493-14.68 8.149-16.008-1.703-6.523-4.219-15.445 1.461-7.734 6.453 8.758 7.875 1.312 13.164-2 5.586-3.531-.297-15.578 2.633-18.258 4-3.672 3.945 11.828 3.93 12.148-.219 6-6.039 19.102-13.359 18.719-6.485-.344-7.79-1.008-9.962 5.609-1.68 5.109-4.008 14.938 1.102 19.438 7.688 6.789 18.008 11.523 21.5 21.688 1.68 4.93-9.734 9.203-2.828 13 1.75.953 7.617 10.742 4.75 11.758-3.055 1.078-3.711-4.289-5.461-4.945-.367.492 2.648 13.523 3.227 14.836 4.281 9.711-.688 6.04 6.688 5.821 12.062-.344 17.664 19.766 17.562 28.312-.219 17.328-21.602 2.961-24.375-4.883-.75-2.086-3.93-4.398-1.219-6.82 3.875-3.469 3.219 4.039 3.977 4.812 7.969 8.367 3.211.641 8.336.703 1.977.023 2.422 5.5 4.953 6.344 4.688 1.586 5.227-5.75 3.523-8.625-4.883-8.25-5.984-5.977-10.086-14.805-2.977-6.391-1.859 7.383-1.508 5.055-.914 6.062-10.266 1.766-12.617-.305-3.875-3.438-13.188-28.758-5.375-29.907 4.047-.618-.445 27.898 8.805 26.43-.274-.719-1.211.187 0 0zm-3.649-29.157c1.875-3.086-3.773-6.297-4.281-8.977-.359-1.922-2.008-14.539-.992-14.766-7.477 1.774-.243 23.165 5.273 23.743.734-1.211-.719-.078 0 0z" fill="url(#f)"/><path d="m108.523 119.05c.531 5.438.977 9.039-9.664 10.883-.836.141-13.219.617-12.68 1.438 2.805 4.273 3.289-.523 7.062.844 4.312 1.594-10.039 4.531-9.367 3.938-7.43 6.57-11.961-9.594-14.367-9.633 1.438.016-20.211 13.773-18.359 9.008.891-2.289 8.789-3.445 8.055-6.477-.328-1.328-10.82-1.969-7.531-4.562 1.852-1.477 5.969-7.406 7.008-9.453 2.117-4.195 11.492-5.5 14.008-9.883 5.625-9.711 23.477 1.609 29.547-.547 23.031-8.148 13.023 30.523 13.867 30.672-1.344-.234-2.617-18.195-5.992-19.352-1.548.351-2.063 1.406-1.587 3.124.196 1.953.063-.648 0 0zm-34.265 3.399c1.367-.039 2.68.156 3.961.617 2.648 1.32-6.508.883-6.508.859-1.633 7.797 26.07 1.102 27.094 1.164 7.32.516.164-4.156-.969-5.547-1.156-1.461-5.32-3.961-5.211.109.07 2.172 3.852-.203 3.891 2.016 0 .195-11.008 2.938-12.531 2.453-3.891-1.249-6.43-10.523-9.727-1.671.82.047.25-.625 0 0zm11.578-1.93c4.031.117 4.914-6.031 4.445-5.852-1.711.648-2.484 3.617-4.469 3.688-.766.031-4.484-4.602-5.203-2.266-.578 1.946 4.024 4.125 5.227 4.43 1.719.039-.836-.211 0 0zm-10.711-6.203c-1.836-2.109-6.25 5.898-6.492 6.734 1.961-.664 5.265-4.984 6.492-6.734-.109-.141-.242.351 0 0zm9.313-4.32c-1.938-1.414-3.273-1.266-3.961.438 1.32-.142 2.625-.298 3.961-.438-1.04-.829-1.274.836 0 0zm18.398 7.125c-.25-1-2.547-4.039-3.781-2.805.523.875 2.687 3.992 3.781 2.805-.047-.133-.438.476 0 0zm-26.516-4.18c2.398.258 3.133-.297 2.188-1.68-1.266-.187-1.992.383-2.188 1.68 1.469.344.196-1.305 0 0zm14.977-3.078c-1.141-.812-1.656-.773-2.602.141.867.515 1.664.593 2.602-.141zm6.258 3.234c-.492-1.578-1.148-1.969-2.023-1.188.195.938.874 1.321 2.023 1.188-.266-1.187-.75-.219 0 0z" fill="url(#g)"/><path d="m207.469 27.886c-7.203 5.039-8.57 9.242-18.172 9.133-3.062-.031-15.609-8.797-10.594-10.227 1.375-.383 7.102 5.211 8.695 5.828 2.852 1.133 10.156-.477 12.125-2.562 4.164-4.484 8.43-8.328 12.336-10.336-3.969 2.047 2.469-20.219 3.852-9.531 1.336 10.156-3.359 18.492-8.547 26.82-2.805 4.523 1.211 21.758 5.562 24.93 2.75 2.016 8.617 5.82 12.094 3.367.273-.188 6.758-2.641 5.586-4.383-1.555-2.312-10.922-1.898-14.32-6.594-1.031-1.414-6.727-11.484-2.086-12.047.516-.055 6.758 9.375 10.156 10.211 14.961 3.703 8.516-12.734 13.141-13.102 7.594-.602-3.484 22.531-5.031 24.469-6.539 8.203-25.516 7.406-26.812-5.719-.312-3.109-4.32-16.773-3.609-17.742-3.234 4.469-13.18 5.703-17.812 4.133-2.992-1.031-12.234-2.859-13.469-7-.695-2.336-4.344-12.734-1.484-15.047 2.492-2 8.922 15.789 14.125 16.227 4.725.399 26.725 1.321 24.264-10.828-.5.352.297 1.352 0 0zm1.797-1.469c.977-.75 1.008-1.102.219-1.977-.485.587-.649 1.173-.219 1.977z" fill="url(#h)"/><path d="m39.414 91.23c-.539-.055-14.594 18.078-13.914 3.758.133-2.711 8.047 4.32 8.516-2.719.25-3.688 5.688-8.453 8.109-10.656 3.672-3.344 3.961 8.984 1.344 11.523.391-.383-6.914 15.938-7.273 14.719 1.844 6.156 20.227-16.023 12.516.305-.977 2.062-6.531 5.836-9.039 5.812-1.633-.016-15.625-3.547-14.492-4.508-4.523 3.82 14.43 9.266 14.812 9.977 3.891 7.055 7.086 8.188 6.867 17.703-.086 2.805-4.281 4.227-6.078 6.141-2.32 2.484 3.062 2.602 1.508 5.578-2.055 3.898 4.555 17.992 5.578 17.594-5.195 2.07-1.398-5.945-6.891-.461-7.484 7.5 9.656 9.562 7.719 14.446-2.148 5.359-12.32-9.524-12.305-12.227.016-6.328 5.992-6.055.578-12.695.477.578.07-12.656-.25-12.023 3.5-6.875.398-16.609-5.875-21.5-1.414-1.078-18.57-21.18-8.828-21.672 3.32-.172 4.008 7.148 10.18 2.703 3.695-2.634 7.468-6.962 7.218-11.798-.945-.086.016.289 0 0zm2.969 45.437c4.719-2.984-2.547-16.102-7.008-15.844-.203.657 6.422 13.579 7.008 15.844.929-.593-.149-.578 0 0zm-9.43-17.835c.266.805.547 1.227 1.375 1.016-.148-.673-.453-1.04-1.375-1.016z" fill="url(#i)"/><path d="m161.5 42.863c.891-1.375 13.297-2.18 7.008-7.133.25.203-.523.562 0 0-7.062 7.297-15.414.078-22.719-2.367-9.836-3.305-4.797-15.609-6.25-21.609-.896-3.608-7.425-8.662-8.127-11.753h-6.241c.899 2.132 2.501 4.128 3.899 4.472 7.82 1.922 7.539 18.516 4.945 18.062.25.055 9.062 16.68 9.758 19.148 2.539 8.969 16.109 6.75 21.492 7.148 3.727.266 7.359-4.227 5.734-7.109-6.101 3.36-4.022 1.719-9.499 1.141zm-9.047-.789c-.844.359-1.789-1.109-1.375-1.773.152 0 .191.012.186.025.761.142 3.112.927 1.189 1.748zm5.469 2.203c-1.398-.477-1.68-1.094-.875-1.859.562-.02.367.049.179.061 1.561.502 1.808 1.092.696 1.798z" fill="url(#j)"/><path d="m75.148 184.184c5.039-.969.883 1.766 3.18 2.992 2.672 1.398 4.109-2.945 5.703-1.438.898.883-4.148 4.492-4.953 5.531-3.227 4.18 6.047 2.602 2.43 7.398-4.375 5.805-11.18-10.438-13.375-12.898-6.109-6.79-10.812-14.899-16.672-21.5-1.68-1.883-1.789-24.172-1.578-24.148 2.383.328 7.789 22.422 10.461 26.352 2.852 4.141 3.578 5.195 7.602 2.289 3.531-2.578 8.18 7.844 7.125 7.562-.938-.562-1.938-.93-3.016-1.078-1.875.07 11.375 5.032 8.945 6.883-1.383 1.031-6.445-3.821-5.852 2.055.547-.125-.109-1.157 0 0zm.055 6.453c1.109-.719 1.18-1.422.203-2.086-1.375.515-1.429 1.203-.203 2.086.406-.547-.398-.547 0 0z" fill="url(#k)"/><path d="m206.891 277.754c-.484 1.516-7.406-10.695-2.531-7.25 5.047 3.555 13.305-8.773 10.773-13.5-.828 1.375-8.797 11.883-10.508 7.195-.656-1.781 8.133-11.602 10.258-10.234 1.961-1.992-1.555-7.234-.492-10.164 10.781 3.773 3.805 22.234-.25 27.352-2.617 3.312-6.117.906-3.07 6.562 1.492 2.789 1.867 11.055-.242 13.789-4.172 5.461-8.188 49.891-14.32 50.492-2.697.258 17.022-60.031 10.382-64.242.109-.367 1.921 1.226 0 0z" fill="url(#l)"/><path d="m50.507 0c-4.989 4.465-9.367 9.732-11.562 12.535-3.234 4.141-9.906 4.227-11.898 9.938-.523 1.469-6.055 16.133-1.297 15.68 4.883-.461.695-16.664 8.047-17.352 1.109 1.133-2.477 11.297-3.719 13.109-3.469 5.125 1.812 7.961 4.133 11.172 3.594 4.969 8.625-3.508 3.125-4.164-3.491-.425-4.258-3.243-4.383-6.12-.401-.458-.465-.837-.023-1.044.091-.039.03.741.008.359.003.228.005.457.015.685 2.171 2.48 14.248 7.269 9.532-.521-3.172-5.258-8.805-11.695-1.695-18.117 4.57-4.125 7.258-9.305 12.102-13.266.493-.401 2.393-1.528 4.674-2.894z" fill="url(#m)"/><path d="m241.25 26.097c.289 19.727-18.141 2.07-20.492 3.852-4.086 3.086 17.227 15.18 9.25 16.227-2.727.352-3.852 4-6.688 1.57-1.625-1.414-6.922-4.836-2.719-6.664 1.586-.695-4.914-9.266-4.273-11.609.477-1.781 4.258-6.258 6.195-4.047 1.961 2.266 6.453 6.578 9.977 5.891 5.812-1.133 2.023-9.93 4.805-10.859 2.476-.814 4.039 4.139 3.945 5.639.031 1.399.102-1.851 0 0z" fill="url(#n)"/><path d="m271.805 65.214c0 3-6.25 16.633-9.773 8.117-.523-1.242.336-2.508 1.602-2.672 4.266-.578 2.719-6.414 2.641-9.398-.18-6.773-10.914-11.758-11.469-16.078-.188-1.422-7.016-20.016-6.93-20.148 3.436-4.164 25.101 40.179 23.929 40.179 0 1.43-.008 0 0 0z" fill="url(#o)"/><path d="m181.312 340.676c.133-1.227 3.594-2.43 5.578-4.68 1.32-1.5 1.5-9.234 1.086-11.328-.547-2.547 6.164-25.664 10.281-17.586 1.5 2.961-3.852 24.484-5.984 27.711-4 6.086 1.273 7.602-6.234 10.961-1.93.883-4.484-5.063-4.727-5.078.071-.563.016 0 0 0z" fill="url(#p)"/><path d="m46.57 235.27c-.328 4.039-4.586 31.398-1.25 33.008-17.477-8.469 3.836-28.719-2.344-40.773-1.125-2.195-3.57-6.445-1.5-8.961 2.422-2.938 4.578 6.445 5.164 7.406 5.164 8.234 11.078 12.273.766 7.141-.773-.392-1.992 2.124-.836 2.179-.125 1.57-.023 0 0 0z" fill="url(#q)"/><path d="m239.922 152.66c.539 12.391-11.906.656-6.719-4.023 2.922-2.625 7.461-15.828 8.781-16.289 20.852-7.22-2.062 19.78-2.062 20.312.078 1.632 0-.461 0 0zm3.023-7.227c1.375-.938 5.898-8.477 2.258-9.094-1.219 1.18-3.773 7.118-2.258 9.094.836-.586-.828-1.078 0 0z" fill="url(#r)"/><path d="m242.328 205.637c-1.039-.82-4.703 1.672-5.086-.336.586-2.266 1.148-4.523 1.641-6.789-.883-2.422-1.586-4.891-2.094-7.422-.172-2.125-4.719-7.617.344-8.188 3.906-.453 5.352 10.117 5.438 12.328.375 8.273 3.094 13.023-.055 21.312-1.859 4.922-7.578 1.453-5.016-.516 2.844-2.155 3.781-7.194 4.828-10.389-.789-.625-.101.297 0 0z" fill="url(#s)"/><path d="m246.695 158.613c-.453-2.812.492-13.641 6.109-11.32-.383-.172-3.016 18.797-4.297 20.891-2.266 3.695-5.164 7.719-8.336 10.648-2.703 2.477-6.789-3.195-4.961-4.586 3.758-2.906 2.359 3.305 7.07-4.43.001-.024 5.767-11.453 4.415-11.203-.195-1.172-.054.015 0 0z" fill="url(#t)"/><path d="m261.914 111.8c-11.164-1.281-3.492-5.008-3.773-11.102-.062-1.164-1.008-12.812-.391-13.047 8.328-3.257 7.836 24.477 4.164 24.149-1.859-.218 1.094.094 0 0z" fill="url(#u)"/><path d="m247.484 106.511c0-3.062 5.398-10.672 3.172-12.773-2.281-2.164.523-5.008 2.93-3.656 3.492 1.961 2.312 10.031.57 12.664-2.695 4.117 3.492 13.031 1.906 13.477-6.124 1.71-8.273-9.704-8.578-9.712 0-.609 0 0 0 0z" fill="url(#v)"/><path d="m275.922 94.652c-.094 2.094-7.164 13.75-8.359 12.008-2.445-3.578 3.039-8.672 3.148-12.883.078-3.078-11.852-15.695-10.344-17.023 4.492-3.922 15.602 14.171 15.555 17.898-.024.484.008-.797 0 0z" fill="url(#w)"/><path d="m219.641 246.559c-5.539-.039 1.234-32.711 7.664-31.078.226.054-4.5 31.039-7.664 31.078-1.172-.008.797-.008 0 0z" fill="url(#x)"/><path d="m83.703 236.004c-.188.719-4.703 17.164-8.336 12.117-.266-.359 3.039-12.516 2.977-14.25-.195-4.562-5.812-7.031-8.336-9.969-4.195-4.859 3.68-2.219 5.383-.867 4.015 3.227 7.5 7.93 8.312 12.969-.156.57-.219-1.32 0 0z" fill="url(#y)"/><path d="m200.477 235.043c-.578 9.266 9.867 5.828 9.398 16.562-.273 6.836-13.188 9.734-4.016.781 5.211-5.062-8.086-8.75-9.008-11.688-.211-.641-1.336-11.648.984-12.227 4.087-1.006 2.063 6.572 2.642 6.572-.055 1.023.039 0 0 0z" fill="url(#z)"/><path d="m65.672 197.137c.914 4.281-6.422 21.258-7.672 18.055-.68-1.695 4.086-13.578 3.93-16.383-.156-2.352-7.961-13.453-5.961-15.133 3.781-3.117 11.047 13.203 9.703 13.461.211 1 .078-.016 0 0z" fill="url(#A)"/><path d="m146.039 16.941c-2.219.055-6.953-6.32-3.336-6.883 1.141.539 2.031 1.352 2.688 2.438 1.109.148 4.297-3.547 4.656-3.672 7.141-2.336 7.719-1.641 14.281 1.867 3.094 1.656 1.297 8.195-4.281 1.773-3.758-4.328-10.289 4.055-14.008 4.477-.977.023 1.399-.164 0 0z" fill="url(#B)"/><path d="m235.422 214.668c-.156 1.602 1.266 9.078-2.461 8.031-1.555-.414-2.242-10.836-4.398-13.352-.031-.039-14.883-14.883-6.945-15.57 1.663-.14 14.249 20.782 13.804 20.891-.016.281.047-.016 0 0z" fill="url(#C)"/><path d="m154.453 26.05c-.445-.539 4.961 5.164 4.961 4.992-.375 5.641-12.258-5.945-12.617-6.344-5.992-6.836 4.852-2.82 5.43-3.062 2-.867 12.102 1.961 13.477 3.266 4.937 4.719-11.181 1.14-11.251 1.148.789 1.032.977-.187 0 0z" fill="url(#D)"/><path d="m116.641 264.027c3.336.023-2.883 8.734-2 11.836.797 2.836 5.164 12.766-1.516 12.594-2.492-.047-8.25-23.398 3.516-24.43.961.024-1.094.11 0 0z" fill="url(#E)"/><path d="m199.254 0c.853 2.524 1.267 4.142.793 3.574 2.51 3.032 3.176.217 3.148-3.574z" fill="url(#F)"/><path d="m199.312 8.683c-.734 1.648-13.164 23.852-14.969 15.5-.266-1.242 7.273-8.094 8.938-9.188 4.266-2.789-1.547-11.609 1.422-14.664 1.672-1.742 4.469 7.618 4.609 8.352-.296.656-.218-1.187 0 0z" fill="url(#G)"/><path d="m120.469 286.176c.117-4.695 1.789-23.469 9.25-24.297 1.742-.195-3.953 12.352-3.758 13.516.453 2.867 3.695 4.766 1.148 7.742-.359.422-6.367 8.265-6.64 3.039.023-.946.031.734 0 0z" fill="url(#H)"/><path d="m225 169.527c0-3.531.789-10.594 3.266-13.352 3.062-3.414.93 13.898 1.102 14.898 3.851 23.907-3.61-1.546-4.368-1.546 0-1.399.023 0 0 0z" fill="url(#I)"/><path d="m72.266 239.098c-.227 3.469-18.852-8.711-20.656-12.875-2.977-6.906 7.312 1.086 6.727 1.078 1.96.039 13.952 8.734 13.929 11.797-.063.867.007-1.797 0 0z" fill="url(#J)"/><path d="m178.99 0c-2.433 1.273-4.682 2.208-4.654 2.285 1.585 4.23 8.442 1.053 12.445-2.285z" fill="url(#K)"/><path d="m56.164 239.746c1.016 1.016 11.836 21.75 12.305 20.719-2.524 5.43-16.172-12.938-12.305-20.719.414.414-.25.477 0 0z" fill="url(#L)"/><path d="m91.656 187.715c1.016.664 2.07.859 3.211.625 1.555-2.148-3-2.43-2.508-4 .266-.898 4.859-3.844 5.633-2.961 1.859 2.102-6.586 21.195-7.945 20.062-6.047-4.984.602-2.125-1.352-7.086-.312-.796 2.024-6.218 2.961-6.64.758.258-.625.281 0 0z" fill="url(#M)"/><path d="m181.898 274.809c-.727 0-7.617.758-6.836-2.406-.234.906 10.203-6.461 9.852-6.484 1.68.125 1.125 3.094 2.75 3.141 2.922.062 1.695-4.219 4.383-3.922 7.195.78-10.149 14.358-10.149 9.671-1.304 0 0-.039 0 0z" fill="url(#N)"/><path d="m234.68 137.792c-.062-1.914-8.609-17-3.57-17.906 7.023-1.258 8.297 27.039 2.312 24.352-3.328-1.508 1.297-4.946 1.258-6.446-.032-1.085.039 1.305 0 0z" fill="url(#O)"/><path d="m121.656 9.246c-2.492 0-9.547-5.867-5.797-5.945 3.664-.086 12.773 3.969 14.773 7.164 4.57 7.281-3.422 10.109-2.711 5.406.665-4.227-6.265-6.383-6.265-6.625-.476 0 0 .007 0 0z" fill="url(#P)"/><path d="m217.344 180.52c3.781 1.82 5.5 4.617 8.617 7.148 1.602 1.297 6.812 9.477.68 6.578-2.875-1.328-16.055-13.469-9.297-13.726.625.296-1.5.062 0 0z" fill="url(#Q)"/><path d="m194.273 27.988c-2 .492-3.492-.141-4.508-1.906-.234 3.633 17.234-13.273 15.094-12.5 3.664-1.329-2.32 13.898-10.586 14.406-.773-.031 1.133-.071 0 0z" fill="url(#R)"/><path d="m233.188 231.543c0 3.727-9.195 19.016-9.688 14.656-.148-1.422 9.852-20.266 7.914-20.664 2.164.453 1.719 4.985 1.774 6.008 0 1.125-.055-1.055 0 0z" fill="url(#S)"/><path d="m86.328 37.097c-4.203-.008-9.852-14.586-6.18-14.391 1.805.094 17.008 15.672 6.18 14.391-1.828-.008 1.578.195 0 0z" fill="url(#T)"/><path d="m227.57 24.628c-8-1.547-6.586-10.484-4.922-8.711 4.977 5.242 10.055-1.203 11.164.289 2.461 3.383-3.867 7.563-6.242 8.422-.367-.07.321-.117 0 0z" fill="url(#U)"/><path d="m134.219 272.105c.125-2.586 1.297-6.25 3.812-7.688.625-.367 7.32-4.258 4.352.492-1.43 2.258-4.828 4.133-4.781 7.242.023 1.609 4.008 8.656.164 8.25-2.321-.241-3.828-8.319-3.547-8.296.023-.75.015 0 0 0z" fill="url(#V)"/><path d="m152.789 275.363c-.383 2.781-11.422 15.695-13.047 12.359.023.07 7.438-8.508 7.812-9.211.469-.906-3.242-7.977.539-6.797 1.579.501 4.688 1.852 4.696 3.649-.008.18 0-1.445 0 0z" fill="url(#W)"/><path d="m74.719 234.512c-.461 5.133-19.25-14.094-13.227-13.648 2.008.148 13.352 11.109 13.227 13.648 0-.039.062-1.227 0 0z" fill="url(#X)"/><path d="m157.156 0h-7.523c4.271 3.649 10.562 6.928 10.742 2.824.014-.322-1.354-1.466-3.219-2.824z" fill="url(#Y)"/><path d="m240.344 54.941c14.984.547-7.789 20.672-8.133 13.164-.07-1.602 4.227-1.477 4.82-2 4.375-3.766 3.313-5.82 3.313-11.164 2.172.078 0 .539 0 0z" fill="url(#Z)"/><path d="m160.57 273.113c0 1.484-.742 8.914-4.148 7.633.703.273-1.219-18.617.305-18.672 2.062-.062 3.961 9.164 3.843 11.039 0 .453.016-.328 0 0z" fill="url(#aa)"/><path d="m235.758 168.082c-8.102-2.859 8.375-11.602 7.992-11.734 3.703 1.437-5.078 11.351-7.992 11.734-.563-.188 1.859-.243 0 0z" fill="url(#ab)"/><path d="m88.141 212.543c-.172 11.867-8.359-7.391-8.852-8.219-2.281-3.937 8.852 6.766 8.852 8.219-.008.906 0-1.508 0 0z" fill="url(#ac)"/><path d="m25.062 278.316c.109-1.734 10.164-15.883 10.938-15.727 2.414.493-8.891 19.313-10.938 15.727.071-1.109.11.196 0 0z" fill="url(#ad)"/><path d="m8.836 74.855c.406-1 8.461-11.906 8.023-7.148-.25 2.546-5.679 10.882-8.023 7.148.82-2 .289.477 0 0z" fill="url(#ae)"/><path d="m244.117 16.589c-3.312-1.18-12.195-8.094-13.664-11.625 3.422-1.265 12.359 8.703 13.664 11.625-.656-.234-.219-.476 0 0z" fill="url(#af)"/><path d="m84.43 193.621c-2.82-2.211 1.391-7.047 3.68-4.922 1.687 1.594-3.258 4.774-3.68 4.922-.328-.258 1.148-.406 0 0z" fill="url(#ag)"/><path d="m116.211 236.574c1.18-.055 2.023.469 2.492 1.547.539 6.953-10.039-1.789-2.492-1.547.305.071-1.477-.047 0 0z" fill="url(#ah)"/><path d="m169.672 343.613c6.875-.133-2.547 7.719-3.117 1.961.523-1.359 1.554-2.015 3.117-1.961 1.086-.015-.539.157 0 0z" fill="url(#ai)"/><path d="m88.93 202.832c2.727 1.945.344 3.898-1.703 5.117-.743.438-1.391-5.172 1.703-5.117.179.133-1.235-.039 0 0z" fill="url(#aj)"/><path d="m164.375 352.855c.062 2.562-4.727 1.438-4.188-.906.524-2.351 4.133-1.156 4.188.906.031 1.188-.047-1.484 0 0z" fill="url(#ak)"/><path d="m97.359 318.23c.664.406 1.344.797 2.023 1.195-.124 5.821-7.265-1.452-2.023-1.195 1.422.086-1.054-.039 0 0z" fill="url(#al)"/><path d="m83.578 308.738c1.602-2.625 4 1.461 2.094 3.289-1.961.016-2.656-1.07-2.094-3.289.102-.172.141 1.094 0 0z" fill="url(#am)"/><path d="m148.078 344.004c2.195.664 2.727 1.758 1.562 3.258-2.288 1.281-4.695-3.149-1.562-3.258 1.297.008-.562.023 0 0z" fill="url(#an)"/><path d="m102.523 173.699c4.109.391-2.75 5.938-2.609 1.617.43-1.149 1.289-1.695 2.609-1.617 1.149.101-.632.156 0 0z" fill="url(#ao)"/><path d="m182.82 351.465c-1.977-1.039-1.945-2.008.109-2.898 2.407.101 2.321 2.913-.109 2.898-.89-.008.985 0 0 0z" fill="url(#ap)"/><path d="m220.266 178.972c-.672-.336-1.344-.648-2.016-.945-3.078-4.039 8.609.969 2.016.945-.743-.07.976 0 0 0z" fill="url(#aq)"/><path d="m89.469 176.714c-1.727-1.008-1.641-1.938.234-2.773 1.899.937 1.82 1.867-.234 2.773-.688-.031.758.024 0 0z" fill="url(#ar)"/><path d="m65.875 165.917c-2.469-.32-3.438-1.438-2.906-3.281 1.758-1.351 2.898 3.281 2.906 3.281-1.484-.351-.437-1.07 0 0z" fill="url(#as)"/><path d="m167.836 349.504c2.062.312 2.461 1.125 1.18 2.445-.696.5-2.836-1.422-1.18-2.445 1.297-.031-.141.07 0 0z" fill="url(#at)"/><path d="m202.508 280.012c.562-1.203 1.18-1.227 1.914-.062-.774 1.499-1.406 1.53-1.914.062-.008-.657.07.429 0 0z" fill="url(#au)"/><path d="m83.75 176.246c-.781-.625-.602-1.164.492-1.617 1.391.515 1.235 1.054-.492 1.617-.102-.141.844-.039 0 0z" fill="url(#av)"/><path d="m74.781 236.707c1.414.742 1.641 1.414.672 2.047-.898-.211-1.125-.906-.672-2.047 1 .422-.398.688 0 0z" fill="url(#aw)"/><path d="m212.75 5.253c-.617 1.023-1.156 1.055-1.547.125.414-1.015.945-1.062 1.547-.125-.422.352-.391-.32 0 0z" fill="url(#ax)"/><path d="m173.883 350.02c-.805.742-1.461.609-1.969-.352.648-.711 1.305-.586 1.969.352-.547.242-.594-.375 0 0z" fill="url(#ay)"/><path d="m157.766 355.629c-.641 1.148-1.125 1.125-1.422-.023.422-1.079.898-1.079 1.422.023-.391.344-.328-.367 0 0z" fill="url(#az)"/><path d="m198.758 177.449c.555.781.484 1.281-.102 1.781-.617-.617-.468-1.109.102-1.781z" fill="url(#aA)"/><path d="m20.023 286.535c-.102.82-.102.82-.688 1.188-.28-.727-.28-.727.688-1.188z" fill="url(#aB)"/><path d="m15 293.246c1.141 1.438-1.383 1.609 0 0 .25.32-.273.297 0 0z" fill="url(#aC)"/><path d="m22.164 284.59c-1.039.922-.742-.344 0 0-.226.187-.211-.102 0 0z" fill="url(#aD)"/><path d="m173.547 186.887c-.688.406-.695-.461 0 0-.18.093-.172-.11 0 0z" fill="url(#aE)"/></g><path d="m179.898 106.292c-.304-1.265-1.421.493 0 0z" fill="url(#aF)"/><path d="m171.539 104.167c.273.008.547.008.82.008.063-.226-.25-.562-.82-.008z" fill="url(#aG)"/><path d="m170.828 114.746c.125 0 .227.031.367.031.399-.156-.054-.094-.367-.031z" fill="url(#aH)"/><path d="m159.039 107.988c-.078.211-.195.258-.25.539.438-.156.375-.516.25-.539z" fill="url(#aI)"/><path d="m201.219 107.839c-1.406-1.766-12.32-14.289-17.711-10.766-.633.406-12.109.523-13.211-.289-1.305-.93-11.508 1.883-13.062 3.109-2.359 1.836-7.859 4.141-10.203.977-2.164-2.93-10.469-5.914-7.844 1.312 2.078 5.664 1.875 9.602 1.984 15.391.031 1.719-1.375 11.352-.594 12.469 1.508 2.172 4.234-11.203 5.227-11.688 4.766-2.383 3.742 8.18 6.586 8.664 3.477.609 2.008-5.672 6.281-1.805 1.062.953 7.617 5.867 8.773 5.773 2.375-.211 8.07 3.453 5.492-2.227 2.32-2.461 3.789.367 5.102 2.195 1.383-.562.18-4.164 2.492-4.07 1.258.625 2.055 1.609 2.398 2.938 5.43-1.656-.562-6.062 6.203-6.023 7.555.055 2.164-4.445 2.906-6.445.438-1.172 10.07 6.344 11.445 6.688 6.5 1.586 4.25-1.109 9.75-2.07-2.163.383-4.624-20.062-12.014-14.133zm-23.657-2.992c1.242-.297 2.023.188 2.336 1.445-2.367.508-3.14.016-2.336-1.445zm-2.039-.633c-1.062-.008-2.117-.023-3.164-.039-.07.164-.273.289-.82-.008 1.797-1.601 3.141-1.578 3.984.047zm-4.523 8.407c.758-.047 4-5.016 4.938-2.766.781 1.875-3.602 4.508-4.742 4.922-.852.109-.664.039-.367-.031-3.727.109-5.102-5.484-4.648-5.359 1.749.476 2.835 3.366 4.819 3.234zm-3.695-8.032c-.812.602-1.602.766-2.609.125 1.054-.937 1.57-.937 2.609-.125zm-8.266 3.399c.359-.992.891-1.398 1.641-.836-.109.953-.727 1.414-1.891 1.375.055-.469.172-.563.25-.539zm-5.101 5.086c.133-1.016 2.125-4.281 3.484-3.172-.438.914-2.281 4.242-3.484 3.172zm4.765 7.531c-7.211 1.219-.547-4.125.43-5.625 1.008-1.562 4.922-4.461 5.195-.391.141 2.156-3.828.172-3.656 2.383.016.188 11.242 1.836 12.695 1.203 3.758-1.625 5.383-11.094 9.492-2.602-1.344.078-2.625.406-3.844.992-2.5 1.586 6.555.242 6.555.227 2.383 7.579-25.836 3.649-26.867 3.813zm22.524-13.055c1.617-2.273 6.805 5.258 7.117 6.078-2.024-.492-5.719-4.453-7.117-6.078z" fill="url(#aJ)"/><path d="m182.859 115.574c-.273-.602-.789.117 0 0z" fill="url(#aK)"/></svg>